<?xml version="1.0" encoding="UTF-8" standalone="no"?>
<!-- Created with Inkscape (http://www.inkscape.org/) -->

<svg
   width="380"
   height="1024"
   viewBox="0 0 100.54167 270.93334"
   version="1.1"
   id="svg5"
   inkscape:version="1.2 (dc2aeda, 2022-05-15)"
   sodipodi:docname="structured.svg"
   xmlns:inkscape="http://www.inkscape.org/namespaces/inkscape"
   xmlns:sodipodi="http://sodipodi.sourceforge.net/DTD/sodipodi-0.dtd"
   xmlns:xlink="http://www.w3.org/1999/xlink"
   xmlns="http://www.w3.org/2000/svg"
   xmlns:svg="http://www.w3.org/2000/svg">
  <sodipodi:namedview
     id="namedview7"
     pagecolor="#ffffff"
     bordercolor="#000000"
     borderopacity="0.25"
     inkscape:showpageshadow="2"
     inkscape:pageopacity="0.0"
     inkscape:pagecheckerboard="0"
     inkscape:deskcolor="#d1d1d1"
     inkscape:document-units="px"
     showgrid="false"
     showguides="false"
     inkscape:zoom="0.81492398"
     inkscape:cx="137.43613"
     inkscape:cy="395.12888"
     inkscape:window-width="1512"
     inkscape:window-height="916"
     inkscape:window-x="0"
     inkscape:window-y="38"
     inkscape:window-maximized="0"
     inkscape:current-layer="layer1" />
  <defs
     id="defs2" />
  <g
     inkscape:label="Layer 1"
     inkscape:groupmode="layer"
     id="layer1">
    <path
       id="use1274"
       style="fill:#ffffff;stroke:#000000;stroke-width:1.05833"
       d="m 26.40991,28.949273 v -8.766157 h 8.766157 v 8.766157"
       sodipodi:nodetypes="cccc"
       inkscape:tile-cx="20.941371"
       inkscape:tile-cy="60.876083"
       inkscape:tile-w="9.2953222"
       inkscape:tile-h="9.8244872"
       inkscape:tile-x0="16.029127"
       inkscape:tile-y0="55.963839" />
    <use
       x="0"
       y="0"
       inkscape:tiled-clone-of="#use1274"
       xlink:href="#use1274"
       id="use1376" />
    <path
       id="use1378"
       style="fill:#ffffff;stroke:#000000;stroke-width:1.05833"
       d="m 26.40991,38.244595 v -8.766157 h 8.766157 v 8.766157"
       sodipodi:nodetypes="cccc"
       inkscape:tile-x0="16.029127"
       inkscape:tile-y0="55.963839" />
    <path
       id="use1380"
       style="fill:#ffffff;stroke:#000000;stroke-width:1.05833"
       d="M 26.40991,47.539917 V 38.77376 h 8.766157 v 8.766157"
       sodipodi:nodetypes="cccc"
       inkscape:tile-x0="16.029127"
       inkscape:tile-y0="55.963839" />
    <path
       id="use1382"
       style="fill:#ffffff;stroke:#000000;stroke-width:1.05833"
       d="m 26.40991,56.83524 v -8.766157 h 8.766157 v 8.766157"
       sodipodi:nodetypes="cccc"
       inkscape:tile-x0="16.029127"
       inkscape:tile-y0="55.963839" />
    <path
       id="use1384"
       style="fill:#ffffff;stroke:#000000;stroke-width:1.05833"
       d="m 26.40991,66.130562 v -8.766157 h 8.766157 v 8.766157"
       sodipodi:nodetypes="cccc"
       inkscape:tile-x0="16.029127"
       inkscape:tile-y0="55.963839" />
    <path
       id="use1386"
       style="fill:#ffffff;stroke:#000000;stroke-width:1.05833"
       d="m 26.40991,75.425884 v -8.766157 h 8.766157 v 8.766157"
       sodipodi:nodetypes="cccc"
       inkscape:tile-x0="16.029127"
       inkscape:tile-y0="55.963839" />
    <path
       id="use1388"
       style="fill:#ffffff;stroke:#000000;stroke-width:1.05833"
       d="m 26.40991,84.721206 v -8.766157 h 8.766157 v 8.766157"
       sodipodi:nodetypes="cccc"
       inkscape:tile-x0="16.029127"
       inkscape:tile-y0="55.963839" />
    <path
       id="use1390"
       style="fill:#ffffff;stroke:#000000;stroke-width:1.05833"
       d="m 26.40991,94.016528 v -8.766157 h 8.766157 v 8.766157"
       sodipodi:nodetypes="cccc"
       inkscape:tile-x0="16.029127"
       inkscape:tile-y0="55.963839" />
    <path
       id="use1392"
       style="fill:#ffffff;stroke:#000000;stroke-width:1.05833"
       d="m 26.40991,103.31185 v -8.766156 h 8.766157 v 8.766156"
       sodipodi:nodetypes="cccc"
       inkscape:tile-x0="16.029127"
       inkscape:tile-y0="55.963839" />
    <path
       id="use1394"
       style="fill:#ffffff;stroke:#000000;stroke-width:1.05833"
       d="m 26.40991,112.60717 v -8.76616 h 8.766157 v 8.76616"
       sodipodi:nodetypes="cccc"
       inkscape:tile-x0="16.029127"
       inkscape:tile-y0="55.963839" />
    <path
       id="use1396"
       style="fill:#ffffff;stroke:#000000;stroke-width:1.05833"
       d="m 26.40991,121.90249 v -8.76616 h 8.766157 v 8.76616"
       sodipodi:nodetypes="cccc"
       inkscape:tile-x0="16.029127"
       inkscape:tile-y0="55.963839" />
    <path
       id="use1398"
       style="fill:#ffffff;stroke:#000000;stroke-width:1.05833"
       d="m 26.40991,131.19781 v -8.76616 h 8.766157 v 8.76616"
       sodipodi:nodetypes="cccc"
       inkscape:tile-x0="16.029127"
       inkscape:tile-y0="55.963839" />
    <path
       id="use1400"
       style="fill:#ffffff;stroke:#000000;stroke-width:1.05833"
       d="m 26.40991,140.49314 v -8.76616 h 8.766157 v 8.76616"
       sodipodi:nodetypes="cccc"
       inkscape:tile-x0="16.029127"
       inkscape:tile-y0="55.963839" />
    <path
       id="use1402"
       style="fill:#ffffff;stroke:#000000;stroke-width:1.05833"
       d="m 26.40991,149.78846 v -8.76616 h 8.766157 v 8.76616"
       sodipodi:nodetypes="cccc"
       inkscape:tile-x0="16.029127"
       inkscape:tile-y0="55.963839" />
    <path
       id="use1404"
       style="fill:#ffffff;stroke:#000000;stroke-width:1.05833"
       d="m 26.40991,159.08378 v -8.76616 h 8.766157 v 8.76616"
       sodipodi:nodetypes="cccc"
       inkscape:tile-x0="16.029127"
       inkscape:tile-y0="55.963839" />
    <path
       id="use1406"
       style="fill:#ffffff;stroke:#000000;stroke-width:1.05833"
       d="m 26.40991,168.3791 v -8.76616 h 8.766157 v 8.76616"
       sodipodi:nodetypes="cccc"
       inkscape:tile-x0="16.029127"
       inkscape:tile-y0="55.963839" />
    <path
       id="use1408"
       style="fill:#ffffff;stroke:#000000;stroke-width:1.05833"
       d="m 26.40991,177.67443 v -8.76616 h 8.766157 v 8.76616"
       sodipodi:nodetypes="cccc"
       inkscape:tile-x0="16.029127"
       inkscape:tile-y0="55.963839" />
    <path
       id="use1410"
       style="fill:#ffffff;stroke:#000000;stroke-width:1.05833"
       d="m 26.40991,186.96975 v -8.76616 h 8.766157 v 8.76616"
       sodipodi:nodetypes="cccc"
       inkscape:tile-x0="16.029127"
       inkscape:tile-y0="55.963839" />
    <path
       id="use1412"
       style="fill:#ffffff;stroke:#000000;stroke-width:1.05833"
       d="m 26.40991,196.26507 v -8.76616 h 8.766157 v 8.76616"
       sodipodi:nodetypes="cccc"
       inkscape:tile-x0="16.029127"
       inkscape:tile-y0="55.963839" />
    <path
       id="use1414"
       style="fill:#ffffff;stroke:#000000;stroke-width:1.05833"
       d="m 26.40991,205.56039 v -8.76616 h 8.766157 v 8.76616"
       sodipodi:nodetypes="cccc"
       inkscape:tile-x0="16.029127"
       inkscape:tile-y0="55.963839" />
    <path
       id="use1416"
       style="fill:#ffffff;stroke:#000000;stroke-width:1.05833"
       d="m 26.40991,214.85571 v -8.76616 h 8.766157 v 8.76616"
       sodipodi:nodetypes="cccc"
       inkscape:tile-x0="16.029127"
       inkscape:tile-y0="55.963839" />
    <path
       id="use1418"
       style="fill:#ffffff;stroke:#000000;stroke-width:1.05833"
       d="m 26.40991,224.15104 v -8.76616 h 8.766157 v 8.76616"
       sodipodi:nodetypes="cccc"
       inkscape:tile-x0="16.029127"
       inkscape:tile-y0="55.963839" />
    <path
       id="use1420"
       style="fill:#ffffff;stroke:#000000;stroke-width:1.05833"
       d="m 26.40991,233.44636 v -8.76616 h 8.766157 v 8.76616"
       sodipodi:nodetypes="cccc"
       inkscape:tile-x0="16.029127"
       inkscape:tile-y0="55.963839" />
    <path
       id="use1422"
       style="fill:#ffffff;stroke:#000000;stroke-width:1.05833"
       d="m 26.40991,242.74168 v -8.76616 h 8.766157 v 8.76616"
       sodipodi:nodetypes="cccc"
       inkscape:tile-x0="16.029127"
       inkscape:tile-y0="55.963839" />
    <path
       id="use1424"
       style="fill:#ffffff;stroke:#000000;stroke-width:1.05833"
       d="m 26.40991,252.037 v -8.76616 h 8.766157 v 8.76616 z"
       sodipodi:nodetypes="ccccc"
       inkscape:tile-x0="16.029127"
       inkscape:tile-y0="55.963839" />
    <g
       aria-label="}"
       id="text2189"
       style="font-size:59.6676px;text-align:center;text-anchor:middle;stroke-width:7.45843">
      <path
         d="m 62.80973,59.930839 h -1.485863 q -4.982011,0 -7.400181,2.796919 -2.418169,2.767784 -2.418169,7.691526 v 4.341051 q 0,5.477299 -3.263072,8.361622 -3.233937,2.913456 -8.449025,2.913456 h -4.370185 v -4.02057 h 3.321341 q 3.962301,0 5.73951,-1.835478 1.806343,-1.835478 1.806343,-5.914318 v -5.098549 q 0,-4.049706 2.243362,-6.788355 2.243362,-2.767784 6.234798,-4.370186 v -0.699229 q -3.991436,-1.602402 -6.234798,-4.341051 -2.243362,-2.767784 -2.243362,-6.817489 v -5.09855 q 0,-4.07884 -1.806343,-5.914318 -1.777209,-1.835478 -5.73951,-1.835478 h -3.321341 v -4.02057 h 4.370185 q 5.215088,0 8.449025,2.913457 3.263072,2.884322 3.263072,8.361621 v 4.341051 q 0,4.923742 2.418169,7.720661 2.41817,2.767784 7.400181,2.767784 h 1.485863 z"
         id="path2982" />
    </g>
    <g
       aria-label="}"
       id="text2193"
       style="font-size:20.3555px;text-align:center;text-anchor:middle;stroke-width:2.54443">
      <path
         d="m 44.76608,48.828125 h -0.506899 q -1.699605,0 -2.524559,0.954164 -0.824955,0.944225 -0.824955,2.623951 v 1.480942 q 0,1.868572 -1.113191,2.852553 -1.103252,0.993921 -2.88237,0.993921 h -1.490882 v -1.371611 h 1.13307 q 1.351732,0 1.958024,-0.62617 0.616231,-0.62617 0.616231,-2.017659 v -1.739362 q 0,-1.38155 0.765319,-2.315835 0.765319,-0.944225 2.126991,-1.490882 V 47.933596 Q 40.661187,47.38694 39.895868,46.452654 39.130549,45.508429 39.130549,44.126879 v -1.739361 q 0,-1.391489 -0.616231,-2.017659 -0.606292,-0.626171 -1.958024,-0.626171 h -1.13307 v -1.37161 h 1.490882 q 1.779118,0 2.88237,0.993921 1.113191,0.983981 1.113191,2.852552 v 1.480942 q 0,1.679727 0.824955,2.633891 0.824954,0.944225 2.524559,0.944225 h 0.506899 z"
         id="path2985" />
    </g>
    <g
       aria-label="}"
       id="text2197"
       style="font-size:20.3555px;text-align:center;text-anchor:middle;stroke-width:2.54443">
      <path
         d="m 44.76608,123.17812 h -0.506899 q -1.699605,0 -2.524559,0.95417 -0.824955,0.94422 -0.824955,2.62395 v 1.48094 q 0,1.86857 -1.113191,2.85255 -1.103252,0.99392 -2.88237,0.99392 h -1.490882 v -1.37161 h 1.13307 q 1.351732,0 1.958024,-0.62617 0.616231,-0.62617 0.616231,-2.01766 v -1.73936 q 0,-1.38155 0.765319,-2.31583 0.765319,-0.94423 2.126991,-1.49088 v -0.23855 q -1.361672,-0.54665 -2.126991,-1.48094 -0.765319,-0.94422 -0.765319,-2.32577 v -1.73936 q 0,-1.39149 -0.616231,-2.01766 -0.606292,-0.62617 -1.958024,-0.62617 h -1.13307 v -1.37161 h 1.490882 q 1.779118,0 2.88237,0.99392 1.113191,0.98398 1.113191,2.85255 v 1.48094 q 0,1.67973 0.824955,2.63389 0.824954,0.94423 2.524559,0.94423 h 0.506899 z"
         id="path2979" />
    </g>
    <g
       aria-label="}"
       id="text2201"
       style="font-size:39.8118px;text-align:center;text-anchor:middle;stroke-width:4.97647">
      <path
         d="m 53.696229,170.18496 h -0.991408 q -3.324129,0 -4.937596,1.86617 -1.613466,1.84674 -1.613466,5.13199 v 2.89647 q 0,3.6546 -2.177208,5.57909 -2.157768,1.94394 -5.637413,1.94394 h -2.915903 v -2.68263 h 2.216087 q 2.643752,0 3.829553,-1.22468 1.20524,-1.22468 1.20524,-3.94619 v -3.40189 q 0,-2.70207 1.49683,-4.52937 1.49683,-1.84674 4.160022,-2.9159 v -0.46655 q -2.663192,-1.06916 -4.160022,-2.89646 -1.49683,-1.84674 -1.49683,-4.54881 v -3.40189 q 0,-2.7215 -1.20524,-3.94618 -1.185801,-1.22468 -3.829553,-1.22468 h -2.216087 v -2.68263 h 2.915903 q 3.479645,0 5.637413,1.94393 2.177208,1.9245 2.177208,5.5791 v 2.89646 q 0,3.28525 1.613466,5.15143 1.613467,1.84674 4.937596,1.84674 h 0.991408 z"
         id="path2976" />
    </g>
    <g
       aria-label="}"
       id="text2205"
       style="font-size:79.2096px;text-align:center;text-anchor:middle;stroke-width:9.90123">
      <path
         d="m 71.779211,180.68235 h -1.972505 q -6.613692,0 -9.823847,3.71295 -3.210155,3.67427 -3.210155,10.21061 v 5.76281 q 0,7.2712 -4.331775,11.10018 -4.293098,3.86765 -11.216203,3.86765 h -5.801485 v -5.33736 h 4.409128 q 5.260013,0 7.619283,-2.43663 2.397947,-2.43662 2.397947,-7.85134 v -6.7684 q 0,-5.37604 2.978096,-9.01164 2.978095,-3.67427 8.276784,-5.80148 v -0.92824 q -5.298689,-2.12721 -8.276784,-5.76281 -2.978096,-3.67427 -2.978096,-9.05031 v -6.7684 q 0,-5.41472 -2.397947,-7.85135 -2.35927,-2.43662 -7.619283,-2.43662 h -4.409128 v -5.33736 h 5.801485 q 6.923105,0 11.216203,3.86765 4.331775,3.82898 4.331775,11.10018 v 5.7628 q 0,6.53634 3.210155,10.24929 3.210155,3.67428 9.823847,3.67428 h 1.972505 z"
         id="path2973" />
    </g>
  </g>
</svg>
